<svg width="80" height="100" viewBox="0 0 80 100" fill="none" xmlns="http://www.w3.org/2000/svg">
<g clip-path="url(#clip0_107_161)">
<path fill-rule="evenodd" clip-rule="evenodd" d="M3.98614 68.2819C1.79913 67.97 -0.031993 69.8011 0.279878 71.9881C2.02993 84.2605 11.7376 93.9681 24.0099 95.7181C26.1969 96.03 28.028 94.1989 27.7162 92.0119C25.9661 79.7395 16.2585 70.0319 3.98614 68.2819ZM8.00152 39.522C8.03106 37.5044 9.76003 36 11.7778 36L31.998 36C34.2072 36 35.998 37.7909 35.998 40C35.998 42.2091 37.7889 44 39.998 44C42.2072 44 43.998 42.2091 43.998 40C43.998 37.7909 45.7889 36 47.998 36L68.2183 36C70.236 36 71.965 37.5044 71.9945 39.522C71.9968 39.681 71.998 39.8404 71.998 40C71.998 55.0991 61.5405 67.7558 47.4731 71.1222C45.5108 71.5918 43.998 73.2669 43.998 75.2846L43.998 96C43.998 98.2091 42.2072 100 39.998 100C37.7889 100 35.998 98.2091 35.998 96L35.998 75.2846C35.998 73.2669 34.4853 71.5918 32.5229 71.1222C18.4556 67.7558 7.99802 55.0991 7.99802 40C7.99802 39.8404 7.99919 39.681 8.00152 39.522ZM76.0099 68.2819C78.1969 67.97 80.028 69.8011 79.7162 71.9881C77.9661 84.2605 68.2585 93.9681 55.9861 95.7181C53.7991 96.03 51.968 94.1989 52.2799 92.0119C54.0299 79.7395 63.7376 70.0319 76.0099 68.2819ZM7.99997 4C7.99997 1.79086 9.80108 -0.0300145 11.9881 0.28186C24.2604 2.03191 33.9681 11.7395 35.7181 24.0119C36.03 26.1989 34.2091 28 32 28L12 28C9.79083 28 7.99997 26.2091 7.99997 24L7.99997 4ZM72 4C72 1.79086 70.1989 -0.0300095 68.0118 0.281857C55.7395 2.03191 46.0319 11.7395 44.2818 24.0119C43.97 26.1989 45.7908 28 48 28L68 28C70.2091 28 72 26.2091 72 24L72 4Z" fill="#F7786B"/>
</g>
<defs>
<clipPath id="clip0_107_161">
<rect width="80" height="100" fill="white"/>
</clipPath>
</defs>
</svg>
