<svg width="768" height="260" viewBox="0 0 768 260" fill="none" xmlns="http://www.w3.org/2000/svg">
<rect width="767.282" height="260" fill="white"/>
<g clip-path="url(#clip0_99_4770)">
<path fill-rule="evenodd" clip-rule="evenodd" d="M103.986 148.282C101.799 147.97 99.968 149.801 100.28 151.988C102.03 164.26 111.738 173.968 124.01 175.718C126.197 176.03 128.028 174.199 127.716 172.012C125.966 159.74 116.258 150.032 103.986 148.282ZM108.002 119.522C108.031 117.504 109.76 116 111.778 116L131.998 116C134.207 116 135.998 117.791 135.998 120C135.998 122.209 137.789 124 139.998 124C142.207 124 143.998 122.209 143.998 120C143.998 117.791 145.789 116 147.998 116L168.218 116C170.236 116 171.965 117.504 171.995 119.522C171.997 119.681 171.998 119.84 171.998 120C171.998 135.099 161.54 147.756 147.473 151.122C145.511 151.592 143.998 153.267 143.998 155.285L143.998 176C143.998 178.209 142.207 180 139.998 180C137.789 180 135.998 178.209 135.998 176L135.998 155.285C135.998 153.267 134.485 151.592 132.523 151.122C118.456 147.756 107.998 135.099 107.998 120C107.998 119.84 107.999 119.681 108.002 119.522ZM176.01 148.282C178.197 147.97 180.028 149.801 179.716 151.988C177.966 164.26 168.258 173.968 155.986 175.718C153.799 176.03 151.968 174.199 152.28 172.012C154.03 159.74 163.738 150.032 176.01 148.282ZM108 84C108 81.7909 109.801 79.97 111.988 80.2819C124.26 82.0319 133.968 91.7395 135.718 104.012C136.03 106.199 134.209 108 132 108L112 108C109.791 108 108 106.209 108 104L108 84ZM172 84C172 81.7909 170.199 79.97 168.012 80.2819C155.74 82.0319 146.032 91.7395 144.282 104.012C143.97 106.199 145.791 108 148 108L168 108C170.209 108 172 106.209 172 104L172 84Z" fill="#F7786B"/>
</g>
<path d="M253.169 137.647C253.717 138.265 253.58 139.568 253.374 140.597V141.008L253.031 143.134C253.031 143.34 252.963 143.615 252.963 143.82C252.963 144.026 252.894 144.232 252.894 144.438C252.003 146.427 251.111 148.416 249.739 150.13L249.259 150.61C248.505 151.365 247.682 152.051 246.859 152.599L246.31 153.011C244.389 154.177 242.195 154.52 240.068 155H239.04C235.953 154.794 232.798 155.206 229.849 154.108L228.957 153.765C227.38 153.011 225.94 152.325 224.842 151.022L224.293 150.405C223.813 149.787 223.333 149.17 222.99 148.416C222.51 147.524 222.03 146.495 221.687 145.329C221.07 143.615 220.795 141.763 220.59 139.911C220.384 138.813 220.315 137.716 220.247 136.619V136.001C220.178 134.15 220.247 132.435 220.041 130.583V129.966C219.972 128.251 219.972 126.605 220.178 124.89C220.178 124.684 220.247 124.479 220.247 124.273L220.384 122.421C220.384 122.215 220.453 122.01 220.453 121.804L220.59 120.501C220.795 118.649 221.07 116.797 221.687 115.082C222.03 113.916 222.51 112.888 222.99 111.996C223.333 111.241 223.813 110.624 224.293 110.007L224.842 109.39C225.94 108.086 227.38 107.401 228.957 106.646L229.849 106.303C232.798 105.206 235.953 105.617 239.04 105.412H240.068C242.195 105.892 244.389 106.235 246.31 107.401L246.859 107.812C247.682 108.361 248.505 109.047 249.259 109.801L249.739 110.281C250.425 111.104 250.974 111.927 251.317 112.75C251.523 113.093 251.797 113.573 252.003 114.053C252.551 114.945 252.757 115.837 252.963 116.866L253.1 117.414C253.306 118.786 253.786 120.295 253.031 121.598C252.963 121.667 252.963 121.804 252.963 121.941C251.591 122.695 250.082 122.627 248.505 122.284H246.173C245.418 122.284 244.527 122.49 244.047 122.01C243.498 121.392 243.429 120.364 243.223 119.472L243.086 118.855C242.881 118.237 242.606 117.689 242.126 117.071C241.92 116.728 241.715 116.523 241.509 116.248L241.097 115.905L240.686 115.631C238.834 114.739 236.639 114.602 234.65 114.808L233.964 115.014C233.21 115.219 232.592 115.631 232.044 116.248L231.564 116.728C231.358 117.003 231.289 117.209 231.221 117.346C231.015 117.689 230.809 117.963 230.672 118.306C230.466 118.992 230.26 119.746 230.192 120.569C230.192 120.775 230.123 120.981 230.123 121.187C229.986 121.941 229.918 122.695 229.918 123.381C229.849 124.41 229.78 125.233 229.78 126.125C229.78 126.399 229.712 126.605 229.712 126.811C229.918 128.8 229.643 130.857 229.643 132.846C229.643 133.121 229.712 133.326 229.712 133.601C229.712 133.807 229.78 134.012 229.78 134.287C229.78 135.178 229.849 136.001 229.918 137.03C229.918 137.785 229.986 138.471 230.123 139.225C230.123 139.431 230.192 139.636 230.192 139.842C230.26 140.665 230.466 141.42 230.672 142.106C230.809 142.449 231.015 142.723 231.221 143.066C231.289 143.203 231.358 143.409 231.564 143.683L232.044 144.163C232.592 144.781 233.21 145.192 233.964 145.398L234.65 145.604C236.639 145.809 238.834 145.672 240.686 144.781L241.097 144.506L241.509 144.163C241.715 143.889 241.92 143.683 242.126 143.34C242.743 142.586 243.018 141.763 243.223 140.94L243.361 140.254C243.361 140.048 243.429 139.979 243.429 139.774C243.429 139.294 243.498 138.813 243.704 138.471C243.841 138.128 244.047 137.785 244.389 137.579C246.516 136.481 249.053 137.51 251.385 137.167C251.865 137.167 252.208 137.167 252.414 137.236C252.757 137.373 253.031 137.51 253.169 137.647ZM283.97 148.553V149.17C284.038 149.993 284.107 150.885 283.901 151.708V152.119C283.901 153.422 283.215 154.52 281.843 154.314H281.295C280.815 154.314 280.54 154.246 280.197 154.246C279.854 154.246 279.58 154.246 279.374 154.314H271.692C269.566 154.383 267.509 154.177 265.382 154.383H264.697C263.599 154.451 262.639 154.451 261.61 153.903C261.542 153.834 261.404 153.697 261.336 153.491C261.267 153.422 261.267 153.217 261.267 153.011C261.061 150.748 261.336 148.416 261.404 146.221V145.741C261.404 140.597 261.336 134.698 261.336 133.121V129.966C261.267 128.663 261.336 127.565 261.404 126.262V125.508C261.473 123.038 261.404 120.569 261.61 118.1V117.62C261.542 115.905 261.61 113.916 261.61 111.996V109.527C261.473 108.978 261.404 108.498 261.473 108.086C261.473 107.812 261.542 107.606 261.542 107.401C261.885 106.509 262.57 106.235 263.325 106.029C263.531 106.029 263.736 105.96 263.942 105.96C264.765 105.96 265.52 105.892 266.343 105.892H266.891C267.097 105.823 267.303 105.823 267.646 105.823C267.989 105.823 268.4 105.823 268.743 105.892C269.018 105.892 269.223 105.892 269.361 105.96H269.841L270.252 106.097C271.692 106.989 271.144 109.184 271.144 110.83V111.447C271.35 113.573 271.281 115.631 271.281 117.757V118.374C271.281 119.129 271.35 119.952 271.35 120.706V121.392C271.144 123.244 271.144 124.822 270.938 126.674V129.348C271.007 129.554 271.007 129.76 271.007 130.034C270.938 132.16 271.212 134.218 271.007 136.344C271.007 136.55 270.938 136.756 270.938 136.962C270.938 137.579 270.869 138.196 270.869 138.813V144.781H282.461C283.832 144.575 284.107 145.741 283.901 146.77V147.387C283.901 147.867 283.901 148.21 283.97 148.553ZM324.356 129.417C324.356 130.583 324.287 131.68 324.218 132.846V134.767C324.287 135.247 324.287 135.521 324.287 135.864C324.287 137.716 324.287 139.294 324.218 141.145C324.218 141.626 324.218 141.968 324.15 142.174C324.081 142.791 324.081 143.477 324.081 144.095V146.495C324.15 146.564 324.15 146.77 324.15 146.975C324.218 148.964 324.63 150.953 324.15 152.942C323.738 154.863 321.543 154.246 320.103 154.451H319.349C318.251 154.451 317.223 154.383 316.399 154.314C316.057 154.246 315.782 154.314 315.576 154.108C314.753 153.903 314.273 153.285 314.136 152.325C313.793 149.925 314.479 147.593 314.273 145.192V144.095C314.273 143.752 314.205 143.409 314.205 143.066C314.205 142.654 314.205 142.311 314.273 142.106C314.273 141.077 314.342 140.254 314.342 139.225V138.745C313.313 138.676 312.353 138.539 311.324 138.539H306.934C304.671 138.539 302.476 138.471 300.213 138.471C300.213 138.676 300.213 138.745 300.281 138.813C300.213 141.008 300.281 143.272 300.281 145.466C300.213 145.604 300.213 145.809 300.213 146.152C300.144 146.907 300.076 147.524 300.076 148.278V149.376C300.007 149.856 300.007 150.405 300.076 150.885V151.708C300.007 152.462 300.007 153.422 299.527 153.903C299.321 154.108 299.116 154.177 298.91 154.177C297.607 154.108 296.441 154.314 295.275 154.383C294.932 154.383 294.726 154.383 294.52 154.451C293.217 154.383 291.434 154.657 290.679 153.354C289.856 151.914 290.474 150.336 290.405 148.759C290.474 148.553 290.474 148.347 290.474 148.004C290.474 147.524 290.474 147.181 290.542 146.975V146.427C290.748 144.506 290.679 142.654 290.679 140.734C290.679 140.46 290.679 140.254 290.611 140.117C290.542 138.813 290.474 137.51 290.542 136.207V135.384C290.542 134.287 290.611 133.121 290.611 132.023C290.611 129.76 290.748 127.428 290.816 125.165C290.885 123.519 291.022 121.804 291.228 120.089C291.434 118.237 291.708 116.385 292.325 114.671C292.668 113.505 293.148 112.476 293.629 111.584C293.971 110.83 294.452 110.213 294.932 109.595L295.48 108.978C296.578 107.675 298.018 106.989 299.596 106.235L300.487 105.892C303.437 104.794 306.591 105.206 309.678 105H310.707C313.45 105.274 316.331 105.686 318.526 107.538L318.869 107.812C320.446 109.39 321.818 111.173 322.847 113.162L323.121 113.916C323.327 114.671 323.533 115.357 323.601 116.18C323.601 116.385 323.67 116.66 323.67 116.866L324.013 118.992C324.013 119.266 324.013 119.609 324.081 119.883C324.287 120.912 324.287 121.804 324.356 122.695C324.561 124.959 324.424 127.222 324.356 129.417ZM311.393 128.937C312.49 128.937 313.587 129.074 314.685 129.143C314.685 128.525 314.616 127.977 314.616 127.359C314.616 127.154 314.548 126.879 314.548 126.674C314.479 125.439 314.479 124.273 314.548 123.107L314.41 122.353C314.41 121.804 314.342 120.981 314.067 120.432C313.862 119.06 313.656 117.757 312.764 116.66C312.559 116.317 312.353 116.111 312.147 115.837L311.736 115.494L311.324 115.219C309.472 114.328 307.277 114.191 305.288 114.396L304.602 114.602C303.848 114.808 303.231 115.219 302.682 115.837L302.202 116.317C301.996 116.591 301.928 116.797 301.859 116.934C301.653 117.277 301.447 117.551 301.31 117.894C301.105 118.58 300.899 119.335 300.83 120.158C300.83 120.364 300.762 120.569 300.762 120.775C300.624 121.529 300.556 122.284 300.556 122.97C300.35 124.959 300.35 126.879 300.281 128.868C302.476 128.868 304.74 128.937 306.934 128.937C308.512 128.937 309.952 128.868 311.393 128.937ZM364.872 137.647C365.42 138.265 365.283 139.568 365.078 140.597V141.008L364.735 143.134C364.735 143.34 364.666 143.615 364.666 143.82C364.666 144.026 364.597 144.232 364.597 144.438C363.706 146.427 362.814 148.416 361.442 150.13L360.962 150.61C360.208 151.365 359.385 152.051 358.562 152.599L358.013 153.011C356.093 154.177 353.898 154.52 351.772 155H350.743C347.656 154.794 344.501 155.206 341.552 154.108L340.661 153.765C339.083 153.011 337.643 152.325 336.545 151.022L335.997 150.405C335.517 149.787 335.036 149.17 334.693 148.416C334.213 147.524 333.733 146.495 333.39 145.329C332.773 143.615 332.499 141.763 332.293 139.911C332.087 138.813 332.019 137.716 331.95 136.619V136.001C331.881 134.15 331.95 132.435 331.744 130.583V129.966C331.676 128.251 331.676 126.605 331.881 124.89C331.881 124.684 331.95 124.479 331.95 124.273L332.087 122.421C332.087 122.215 332.156 122.01 332.156 121.804L332.293 120.501C332.499 118.649 332.773 116.797 333.39 115.082C333.733 113.916 334.213 112.888 334.693 111.996C335.036 111.241 335.517 110.624 335.997 110.007L336.545 109.39C337.643 108.086 339.083 107.401 340.661 106.646L341.552 106.303C344.501 105.206 347.656 105.617 350.743 105.412H351.772C353.898 105.892 356.093 106.235 358.013 107.401L358.562 107.812C359.385 108.361 360.208 109.047 360.962 109.801L361.442 110.281C362.128 111.104 362.677 111.927 363.02 112.75C363.226 113.093 363.5 113.573 363.706 114.053C364.255 114.945 364.46 115.837 364.666 116.866L364.803 117.414C365.009 118.786 365.489 120.295 364.735 121.598C364.666 121.667 364.666 121.804 364.666 121.941C363.294 122.695 361.785 122.627 360.208 122.284H357.876C357.121 122.284 356.23 122.49 355.75 122.01C355.201 121.392 355.132 120.364 354.927 119.472L354.789 118.855C354.584 118.237 354.309 117.689 353.829 117.071C353.624 116.728 353.418 116.523 353.212 116.248L352.8 115.905L352.389 115.631C350.537 114.739 348.342 114.602 346.353 114.808L345.667 115.014C344.913 115.219 344.296 115.631 343.747 116.248L343.267 116.728C343.061 117.003 342.993 117.209 342.924 117.346C342.718 117.689 342.512 117.963 342.375 118.306C342.169 118.992 341.964 119.746 341.895 120.569C341.895 120.775 341.827 120.981 341.827 121.187C341.689 121.941 341.621 122.695 341.621 123.381C341.552 124.41 341.484 125.233 341.484 126.125C341.484 126.399 341.415 126.605 341.415 126.811C341.621 128.8 341.346 130.857 341.346 132.846C341.346 133.121 341.415 133.326 341.415 133.601C341.415 133.807 341.484 134.012 341.484 134.287C341.484 135.178 341.552 136.001 341.621 137.03C341.621 137.785 341.689 138.471 341.827 139.225C341.827 139.431 341.895 139.636 341.895 139.842C341.964 140.665 342.169 141.42 342.375 142.106C342.512 142.449 342.718 142.723 342.924 143.066C342.993 143.203 343.061 143.409 343.267 143.683L343.747 144.163C344.296 144.781 344.913 145.192 345.667 145.398L346.353 145.604C348.342 145.809 350.537 145.672 352.389 144.781L352.8 144.506L353.212 144.163C353.418 143.889 353.624 143.683 353.829 143.34C354.447 142.586 354.721 141.763 354.927 140.94L355.064 140.254C355.064 140.048 355.132 139.979 355.132 139.774C355.132 139.294 355.201 138.813 355.407 138.471C355.544 138.128 355.75 137.785 356.093 137.579C358.219 136.481 360.757 137.51 363.089 137.167C363.569 137.167 363.912 137.167 364.117 137.236C364.46 137.373 364.735 137.51 364.872 137.647ZM392.929 129.417C392.792 129.554 392.724 129.691 392.724 129.76C392.586 130.103 392.586 130.446 392.724 130.789C392.792 130.995 392.929 131.132 392.998 131.2L395.124 134.15C395.193 134.355 395.33 134.492 395.398 134.561C395.398 134.63 395.398 134.63 395.467 134.698L395.673 134.973C396.153 135.796 396.702 136.619 397.319 137.51L397.662 137.99L400.68 142.037L401.023 142.517C402.12 143.957 403.149 145.329 404.178 146.907L404.658 147.455C405.138 148.21 405.755 148.827 406.304 149.582C406.304 149.65 406.304 149.65 406.372 149.719L406.578 149.993L407.195 150.885C407.813 151.365 408.156 151.982 408.361 152.599C408.636 153.354 407.95 154.108 407.195 154.314C406.167 154.52 405.412 154.383 404.383 154.314H401.571C401.365 154.314 401.16 154.246 400.954 154.246C399.308 154.451 397.525 153.971 396.496 152.599C396.29 152.394 396.359 152.325 396.153 152.257L394.507 149.856L394.164 149.307L393.066 147.73L392.724 147.25L392.518 147.044C391.489 145.672 390.597 144.163 389.568 142.791L389.226 142.311L386.894 139.088L386.551 138.608C385.728 137.579 385.042 136.55 384.562 135.521L384.15 135.041C383.601 134.287 382.984 133.532 382.504 132.709V147.593C382.435 148.073 382.367 148.416 382.367 148.896V149.513C382.161 151.091 382.778 152.668 382.23 153.834C381.338 155.48 378.938 154.108 377.017 154.52H376.331C375.371 154.588 374.479 154.52 373.725 154.246L373.245 153.903C372.49 153.285 373.039 151.433 373.039 150.062V149.582C373.039 143.82 372.97 135.11 372.97 133.121V129.966C372.902 127.977 373.039 125.988 373.108 123.999C373.108 123.793 373.176 123.587 373.176 123.381V122.695C373.176 122.558 373.176 122.49 373.245 122.421V109.527C373.108 108.978 373.039 108.498 373.108 108.086C373.108 107.812 373.176 107.606 373.176 107.401C373.519 106.509 374.205 106.235 374.959 106.029C375.165 106.029 375.371 105.96 375.577 105.96C377.703 105.892 379.555 105.754 381.681 106.097C381.887 106.166 382.024 106.303 382.092 106.372C382.298 106.44 382.367 106.578 382.435 106.783C382.778 107.401 382.916 108.361 382.71 109.184C382.778 109.252 382.778 109.458 382.778 109.733V110.487C382.778 110.967 382.778 111.379 382.71 111.859V112.407C382.71 114.808 382.778 117.003 382.778 117.346V123.381C382.71 124.41 382.641 125.233 382.641 126.125C382.641 126.399 382.573 126.605 382.573 126.811V127.771C382.778 127.565 382.847 127.359 383.053 127.085L383.327 126.674L392.724 113.162L393.066 112.682L394.164 111.104L394.507 110.556L395.879 108.567L396.153 108.224C396.907 107.126 397.799 106.166 399.102 105.823H406.304C407.058 105.754 407.675 105.549 408.224 106.029C408.636 106.44 408.704 106.92 408.499 107.538C408.499 107.743 408.361 107.812 408.293 108.018L408.018 108.361L407.607 108.978L406.715 110.281C406.51 110.487 406.372 110.624 406.304 110.83C405.755 111.584 405.138 112.202 404.658 112.956L404.178 113.505L403.835 113.985L403.56 114.534L402.463 116.111L402.051 116.591L400.885 117.963L400.542 118.374C399.788 119.266 399.239 120.158 398.485 121.187L398.142 121.735L396.427 124.342C396.359 124.547 396.29 124.684 396.084 124.89C395.055 126.468 393.684 127.702 392.929 129.417ZM448.042 114.122C448.11 116.317 448.247 118.58 448.042 120.844C447.973 121.735 447.973 122.627 447.767 123.656C447.699 123.93 447.699 124.273 447.699 124.547V124.616C447.699 124.684 447.63 124.822 447.63 124.89C447.63 125.027 447.562 125.302 447.493 125.645C447.493 125.919 447.493 126.125 447.424 126.262C447.424 126.468 447.356 126.674 447.287 126.948C447.081 127.84 446.739 128.663 446.396 129.417L446.121 130.034C445.641 131.063 445.161 132.023 444.407 133.052L443.995 133.601C442.623 135.384 440.909 136.687 438.782 137.442L438.165 137.647C437.411 137.99 436.519 138.196 435.49 138.333V148.827C435.079 150.748 436.519 154.04 433.776 154.383C433.57 154.383 433.364 154.451 433.158 154.451C431.032 154.52 429.18 154.657 427.054 154.314C426.848 154.246 426.711 154.108 426.643 154.04C426.437 153.971 426.368 153.834 426.3 153.628C425.957 153.011 425.819 152.051 426.025 151.228C425.957 151.159 425.957 150.953 425.957 150.679V149.925C425.957 149.444 425.957 149.033 426.025 148.553V148.004C426.025 145.604 425.957 143.683 425.957 143.34V138.196C425.339 137.99 424.722 137.853 424.173 137.647L423.282 137.305C421.704 136.55 420.264 135.864 419.167 134.561L418.618 133.944C418.138 133.326 417.658 132.709 417.315 131.955C416.835 131.063 416.354 130.034 416.011 128.868C415.394 127.154 415.12 125.302 414.914 123.45C414.708 121.735 414.571 120.021 414.503 118.374L414.297 112.819V112.202C414.297 111.379 414.365 110.556 414.297 109.664C414.297 109.458 414.228 109.39 414.228 109.184C414.228 108.155 414.16 106.92 415.257 106.44C415.326 106.372 415.531 106.372 415.737 106.372C416.011 106.303 416.217 106.235 416.492 106.235C416.697 106.235 416.972 106.166 417.177 106.166C417.383 106.166 417.589 106.097 417.795 106.097C419.647 105.892 421.773 105.617 423.35 106.783C423.419 106.852 423.556 106.92 423.625 107.126L423.83 107.675C423.83 107.881 423.899 108.086 423.899 108.361C424.105 109.458 423.83 110.624 423.899 111.722C423.899 111.927 423.83 112.133 423.83 112.407C423.762 113.505 423.693 114.602 423.899 115.7C423.899 116.043 423.899 116.248 423.968 116.385C423.968 116.66 424.036 116.866 424.036 117.14V117.826C424.036 118.717 424.105 119.54 424.173 120.569C424.173 121.324 424.242 122.01 424.448 122.764V123.381C424.516 124.067 424.653 124.822 424.996 125.645C425.134 125.988 425.339 126.262 425.545 126.605C425.614 126.742 425.682 126.948 425.888 127.222L426.368 127.702C426.917 128.32 427.534 128.731 428.289 128.937L428.974 129.143C430.963 129.348 433.158 129.211 435.01 128.32L435.422 128.045L435.833 127.702C436.039 127.428 436.245 127.222 436.45 126.879C437.616 125.508 438.028 123.107 438.097 121.187L438.234 120.432C438.165 119.883 438.234 119.266 438.234 118.649V118.1C438.165 116.66 438.302 115.288 438.371 113.848C438.439 113.711 438.439 113.505 438.439 113.23C438.508 112.75 438.508 112.407 438.508 111.927V111.31C438.508 109.664 437.822 107.126 439.605 106.029C439.811 106.029 440.017 105.96 440.223 105.96C440.36 105.892 440.566 105.892 440.84 105.892H441.526C443.103 106.097 444.749 105.96 446.327 105.96L446.944 106.166L447.562 106.578C448.316 107.126 448.11 108.155 447.904 108.978V110.693C447.973 111.859 448.042 112.956 448.042 114.122ZM497.734 129.417C497.596 129.554 497.528 129.691 497.528 129.76C497.391 130.103 497.391 130.446 497.528 130.789C497.596 130.995 497.734 131.132 497.802 131.2L499.928 134.15C499.997 134.355 500.134 134.492 500.203 134.561C500.203 134.63 500.203 134.63 500.271 134.698L500.477 134.973C500.957 135.796 501.506 136.619 502.123 137.51L502.466 137.99L505.484 142.037L505.827 142.517C506.924 143.957 507.953 145.329 508.982 146.907L509.462 147.455C509.942 148.21 510.559 148.827 511.108 149.582C511.108 149.65 511.108 149.65 511.177 149.719L511.382 149.993L512 150.885C512.617 151.365 512.96 151.982 513.166 152.599C513.44 153.354 512.754 154.108 512 154.314C510.971 154.52 510.216 154.383 509.188 154.314H506.376C506.17 154.314 505.964 154.246 505.758 154.246C504.112 154.451 502.329 153.971 501.3 152.599C501.094 152.394 501.163 152.325 500.957 152.257L499.311 149.856L498.968 149.307L497.871 147.73L497.528 147.25L497.322 147.044C496.293 145.672 495.402 144.163 494.373 142.791L494.03 142.311L491.698 139.088L491.355 138.608C490.532 137.579 489.846 136.55 489.366 135.521L488.954 135.041C488.406 134.287 487.788 133.532 487.308 132.709V147.593C487.24 148.073 487.171 148.416 487.171 148.896V149.513C486.965 151.091 487.583 152.668 487.034 153.834C486.142 155.48 483.742 154.108 481.821 154.52H481.135C480.175 154.588 479.284 154.52 478.529 154.246L478.049 153.903C477.295 153.285 477.843 151.433 477.843 150.062V149.582C477.843 143.82 477.775 135.11 477.775 133.121V129.966C477.706 127.977 477.843 125.988 477.912 123.999C477.912 123.793 477.98 123.587 477.98 123.381V122.695C477.98 122.558 477.98 122.49 478.049 122.421V109.527C477.912 108.978 477.843 108.498 477.912 108.086C477.912 107.812 477.98 107.606 477.98 107.401C478.323 106.509 479.009 106.235 479.764 106.029C479.97 106.029 480.175 105.96 480.381 105.96C482.507 105.892 484.359 105.754 486.485 106.097C486.691 106.166 486.828 106.303 486.897 106.372C487.103 106.44 487.171 106.578 487.24 106.783C487.583 107.401 487.72 108.361 487.514 109.184C487.583 109.252 487.583 109.458 487.583 109.733V110.487C487.583 110.967 487.583 111.379 487.514 111.859V112.407C487.514 114.808 487.583 117.003 487.583 117.346V123.381C487.514 124.41 487.445 125.233 487.445 126.125C487.445 126.399 487.377 126.605 487.377 126.811V127.771C487.583 127.565 487.651 127.359 487.857 127.085L488.131 126.674L497.528 113.162L497.871 112.682L498.968 111.104L499.311 110.556L500.683 108.567L500.957 108.224C501.712 107.126 502.603 106.166 503.906 105.823H511.108C511.863 105.754 512.48 105.549 513.029 106.029C513.44 106.44 513.509 106.92 513.303 107.538C513.303 107.743 513.166 107.812 513.097 108.018L512.823 108.361L512.411 108.978L511.52 110.281C511.314 110.487 511.177 110.624 511.108 110.83C510.559 111.584 509.942 112.202 509.462 112.956L508.982 113.505L508.639 113.985L508.365 114.534L507.267 116.111L506.856 116.591L505.69 117.963L505.347 118.374C504.592 119.266 504.044 120.158 503.289 121.187L502.946 121.735L501.232 124.342C501.163 124.547 501.094 124.684 500.889 124.89C499.86 126.468 498.488 127.702 497.734 129.417ZM549.066 145.946L549.203 146.632C548.997 148.759 549.477 150.953 548.86 153.148L548.723 153.56L548.38 154.04C547.762 154.794 545.911 154.246 544.539 154.246H544.059C540.218 154.246 535.485 154.314 531.987 154.314H530.479C528.352 154.383 526.295 154.177 524.169 154.383H523.483C522.385 154.451 521.425 154.451 520.396 153.903C520.328 153.834 520.19 153.697 520.122 153.491C519.848 152.668 520.19 151.228 520.19 150.062V149.582C520.19 143.82 520.122 135.11 520.122 133.121V129.966C520.053 128.663 520.122 127.565 520.19 126.262V125.508C520.259 123.038 520.19 120.569 520.396 118.1V117.62C520.328 115.905 520.396 113.916 520.396 111.996V109.527C520.259 108.978 520.19 108.498 520.259 108.086C520.259 107.812 520.328 107.606 520.328 107.401C520.671 106.509 521.356 106.235 522.111 106.029C522.317 106.029 522.522 105.96 522.728 105.96C524.649 105.892 526.5 105.754 528.421 106.029H542.07C542.55 106.097 542.893 106.166 543.373 106.166H543.99C545.568 106.372 547.145 105.754 548.311 106.303C549.134 106.783 549.203 107.538 549.134 108.567C549.134 108.772 549.066 109.047 549.066 109.321C548.791 110.624 549.066 111.79 548.997 113.093V113.505C548.928 114.053 548.791 114.465 548.723 114.808L548.38 115.288C547.762 116.043 545.911 115.494 544.539 115.494H544.059C539.326 115.494 533.359 115.562 529.861 115.562C529.861 116.454 529.93 117.14 529.93 117.346V123.381C529.861 123.724 529.861 124.067 529.861 124.342H542.07C542.55 124.41 542.893 124.479 543.373 124.479H544.813C545.979 124.684 547.145 124.136 548.174 124.753C548.654 125.096 548.86 125.645 548.791 126.262V126.742L548.586 129.005V129.76C548.517 130.24 548.517 130.652 548.517 131.132V131.818C548.86 134.561 545.705 133.601 544.059 133.807H543.236C538.503 133.807 532.811 133.875 529.655 133.875V134.492C529.724 136.619 529.655 138.539 529.655 140.665V144.781H542.07C542.55 144.849 542.893 144.918 543.373 144.918H543.99C545.568 145.123 547.145 144.506 548.311 145.055C548.723 145.261 548.997 145.604 549.066 145.946ZM586.255 145.946L586.393 146.632C586.187 148.759 586.667 150.953 586.05 153.148L585.912 153.56L585.57 154.04C584.952 154.794 583.1 154.246 581.729 154.246H581.249C577.408 154.246 572.675 154.314 569.177 154.314H567.668C565.542 154.383 563.484 154.177 561.358 154.383H560.672C559.575 154.451 558.615 154.451 557.586 153.903C557.517 153.834 557.38 153.697 557.312 153.491C557.037 152.668 557.38 151.228 557.38 150.062V149.582C557.38 143.82 557.312 135.11 557.312 133.121V129.966C557.243 128.663 557.312 127.565 557.38 126.262V125.508C557.449 123.038 557.38 120.569 557.586 118.1V117.62C557.517 115.905 557.586 113.916 557.586 111.996V109.527C557.449 108.978 557.38 108.498 557.449 108.086C557.449 107.812 557.517 107.606 557.517 107.401C557.86 106.509 558.546 106.235 559.301 106.029C559.506 106.029 559.712 105.96 559.918 105.96C561.838 105.892 563.69 105.754 565.611 106.029H579.26C579.74 106.097 580.083 106.166 580.563 106.166H581.18C582.757 106.372 584.335 105.754 585.501 106.303C586.324 106.783 586.393 107.538 586.324 108.567C586.324 108.772 586.255 109.047 586.255 109.321C585.981 110.624 586.255 111.79 586.187 113.093V113.505C586.118 114.053 585.981 114.465 585.912 114.808L585.57 115.288C584.952 116.043 583.1 115.494 581.729 115.494H581.249C576.516 115.494 570.549 115.562 567.051 115.562C567.051 116.454 567.12 117.14 567.12 117.346V123.381C567.051 123.724 567.051 124.067 567.051 124.342H579.26C579.74 124.41 580.083 124.479 580.563 124.479H582.003C583.169 124.684 584.335 124.136 585.364 124.753C585.844 125.096 586.05 125.645 585.981 126.262V126.742L585.775 129.005V129.76C585.707 130.24 585.707 130.652 585.707 131.132V131.818C586.05 134.561 582.895 133.601 581.249 133.807H580.426C575.693 133.807 570 133.875 566.845 133.875V134.492C566.914 136.619 566.845 138.539 566.845 140.665V144.781H579.26C579.74 144.849 580.083 144.918 580.563 144.918H581.18C582.757 145.123 584.335 144.506 585.501 145.055C585.912 145.261 586.187 145.604 586.255 145.946ZM626.943 139.842C627.012 139.979 627.012 140.185 627.012 140.528V141.145C626.943 142.86 626.6 144.438 625.983 145.878L625.64 146.495C625.16 147.661 624.474 148.69 623.582 149.65L623.102 150.13C622.622 150.61 622.073 151.091 621.525 151.502L620.976 151.914C618.85 153.56 616.175 153.834 613.637 154.314H612.197C611.305 154.383 610.482 154.451 609.453 154.451H607.259C605.27 154.657 603.212 154.383 601.223 154.314H597.725C595.53 154.794 594.707 153.08 594.501 151.228V150.473C594.501 148.621 594.639 146.701 594.57 144.849V144.232C594.57 143.203 594.639 142.174 594.57 141.145V140.46C594.639 139.431 594.639 138.333 594.57 137.236C594.57 137.03 594.639 136.824 594.639 136.619V133.052C594.57 132.915 594.57 132.709 594.57 132.366C594.639 130.103 594.57 127.634 594.364 125.37C594.433 125.233 594.433 125.096 594.433 124.89C594.433 124.684 594.501 124.616 594.501 124.41V123.861C594.501 123.656 594.57 123.381 594.57 123.176C594.57 122.833 594.57 122.627 594.639 122.421C594.433 121.804 594.501 121.118 594.433 120.501V119.815C594.364 118.237 594.639 116.866 594.433 115.288V114.602C594.364 113.436 594.501 112.27 594.57 111.104V109.664C594.501 108.772 594.639 107.949 594.981 107.195L595.256 106.646L595.736 106.235C597.588 105.617 599.371 105.96 601.223 105.96H601.909C603.006 105.96 604.104 106.029 605.201 105.96H605.887C607.533 105.754 609.248 105.754 610.894 105.96C611.099 105.96 611.237 106.029 611.442 106.029C612.746 105.96 613.843 106.235 615.009 106.44C615.215 106.44 615.489 106.509 615.695 106.509C617.821 106.578 619.673 107.675 621.525 108.704L622.211 109.047L622.828 109.527L623.377 110.007C624.68 111.379 625.571 113.025 626.12 114.877L626.257 115.562L626.394 116.043C626.394 116.111 626.394 116.18 626.463 116.248C627.08 118.512 627.355 120.912 626.257 123.107L625.983 123.793L625.777 124.204C625.708 124.273 625.708 124.342 625.708 124.41C625.503 124.89 625.297 125.165 625.023 125.645C624.817 125.919 624.68 126.125 624.543 126.193C623.788 127.222 622.965 128.045 622.073 128.8L621.525 129.211C621.045 129.486 620.564 129.76 620.016 129.966L619.536 130.171L619.947 130.377C622.073 131.269 623.994 132.778 625.091 134.767L625.503 135.315C625.708 135.59 625.777 135.796 625.846 136.001C626.394 137.03 626.737 138.128 626.874 139.156C626.943 139.362 626.943 139.568 626.943 139.842ZM604.104 121.392H604.035C604.104 121.529 604.104 121.735 604.104 122.01C604.104 122.215 604.035 122.353 604.035 122.558V122.627H603.966V123.176C603.898 123.313 603.898 123.519 603.898 123.793C603.898 124.136 603.898 124.342 603.966 124.479V125.713H605.544C606.298 125.713 606.916 125.782 607.67 125.782H608.425C610.414 125.85 612.471 125.988 614.392 125.439L615.009 125.165C615.695 124.822 616.175 124.342 616.381 123.724C616.586 123.519 616.586 123.313 616.655 123.107L616.861 122.353L616.998 121.804C617.067 121.255 617.067 120.775 616.929 120.295C616.929 120.089 616.861 120.021 616.861 119.815V119.609L616.724 118.992C616.518 118.512 616.243 118.032 616.038 117.689C615.901 117.414 615.763 117.209 615.626 117.071C614.803 115.494 612.677 115.151 610.962 114.945C610.825 115.014 610.619 115.014 610.345 115.014C608.493 115.014 606.847 114.808 605.132 115.014H604.652C604.309 115.082 604.172 115.219 604.104 115.288C603.829 115.837 604.035 116.728 604.035 117.483V118.169C604.035 119.266 604.172 120.295 604.104 121.392ZM617.067 139.774V139.636L616.861 138.265L616.724 137.647L616.449 137.099L616.243 136.619C615.42 135.521 614.049 135.11 612.608 134.904C612.334 134.904 612.128 134.904 611.991 134.835H609.042C607.327 134.767 605.681 134.973 603.966 134.767C604.172 136.207 603.692 137.579 603.898 139.156C603.898 139.362 603.898 139.568 603.966 139.636V142.106C604.035 142.723 603.829 143.477 604.035 143.957C604.035 144.163 604.104 144.232 604.241 144.3C606.23 145.192 608.63 144.712 610.757 144.781C611.031 144.781 611.237 144.781 611.374 144.712C611.991 144.643 612.608 144.506 613.157 144.3L613.843 144.095C614.735 143.752 615.489 143.203 616.038 142.517C616.106 142.311 616.175 142.174 616.381 141.968L616.655 141.488C616.724 141.351 616.861 141.145 616.929 140.871L617.067 139.774ZM645.06 117.346C644.923 117.483 644.854 117.62 644.786 117.826C644.031 119.129 644.031 120.981 645.06 122.078L645.54 122.627C646.844 123.793 648.421 124.479 650.067 125.027C650.136 125.027 650.341 125.096 650.616 125.165C652.742 126.193 655.074 126.742 657.269 127.634C657.543 127.702 657.749 127.84 657.886 127.908C659.326 128.457 660.767 128.937 662.07 129.966L662.687 130.514L663.785 131.749L664.127 132.16C665.568 133.807 666.391 135.727 666.528 137.99C666.597 138.196 666.597 138.402 666.597 138.676C666.802 139.362 666.871 140.117 666.871 140.871C666.871 141.145 666.802 141.351 666.802 141.626C666.459 143.615 665.911 145.604 665.019 147.455L664.813 147.936L664.539 148.416C664.196 149.17 663.716 149.787 663.236 150.405L662.687 151.022C661.59 152.325 660.149 153.011 658.572 153.765L657.68 154.108C654.731 155.206 651.576 154.794 648.49 155H647.461C645.335 154.52 643.14 154.177 641.219 153.011L640.671 152.599C639.848 152.051 639.025 151.365 638.27 150.61L637.79 150.13C637.31 149.513 636.83 148.759 636.35 147.936C636.144 147.73 636.213 147.593 636.007 147.387L635.732 146.838L635.527 146.289C634.704 144.712 634.498 143.066 634.224 141.351C634.155 141.283 634.155 141.214 634.155 141.077V140.597C633.881 139.431 633.743 137.853 635.115 137.373C635.389 137.236 635.595 137.167 635.801 137.167C636.967 136.962 638.27 137.167 639.368 136.962C639.505 137.03 639.71 137.03 639.985 137.03C640.876 137.03 641.699 137.099 642.454 137.305C642.728 137.373 642.934 137.51 643.14 137.579L643.551 137.99L643.826 138.471C644.031 138.813 644.1 139.294 644.1 139.774C644.1 139.979 644.169 140.048 644.169 140.254L644.306 140.94C644.512 141.763 644.786 142.586 645.403 143.34C645.609 143.683 645.815 143.889 646.02 144.163L646.432 144.506L646.844 144.781C648.695 145.672 650.89 145.809 652.879 145.604L653.565 145.398C653.908 145.329 654.251 145.123 654.594 144.918L655.074 144.575C656.377 143.477 656.926 141.968 656.994 140.322V139.636L656.857 139.088L656.651 138.471C656.583 138.402 656.446 138.265 656.377 138.059C656.103 137.716 655.828 137.373 655.486 137.167C655.28 136.962 655.143 136.893 654.937 136.824C653.085 135.727 651.096 134.835 648.97 134.287L648.284 134.081C646.158 133.189 643.894 132.572 641.905 131.269L641.425 131.063L641.014 130.857C639.573 129.966 638.407 128.937 637.379 127.771L636.898 127.291C636.555 126.948 636.281 126.605 636.007 126.125C635.801 125.85 635.732 125.645 635.664 125.508C634.635 123.519 634.841 121.324 634.635 119.198C634.635 118.923 634.704 118.717 634.704 118.512C634.772 117.209 635.047 116.18 635.527 115.082L635.87 113.985C636.075 113.368 636.418 112.682 636.83 111.996C637.173 111.241 637.653 110.624 638.133 110.007L638.682 109.39C639.779 108.086 641.219 107.401 642.797 106.646L643.689 106.303C646.638 105.206 649.793 105.617 652.879 105.412H653.908C656.034 105.892 658.229 106.235 660.149 107.401L660.698 107.812C661.521 108.361 662.344 109.047 663.099 109.801L663.579 110.281C664.265 111.104 664.813 111.927 665.156 112.75C665.362 113.093 665.636 113.573 665.842 114.053C666.391 114.945 666.597 115.837 666.802 116.866L666.94 117.414L667.214 119.54C667.282 119.678 667.282 119.883 667.282 120.226C667.214 121.667 665.979 122.558 664.608 122.558C664.47 122.49 664.265 122.49 663.99 122.49C662.07 122.284 659.944 122.695 658.092 122.078C657.749 121.735 657.543 121.392 657.406 120.912C657.2 120.432 657.132 119.952 657.063 119.472L656.926 118.855C656.72 118.237 656.446 117.689 655.966 117.071C655.76 116.728 655.554 116.523 655.348 116.248L654.937 115.905L654.525 115.631C652.673 114.739 650.479 114.602 648.49 114.808L647.804 115.014C647.049 115.219 646.432 115.631 645.883 116.248L645.403 116.728C645.197 117.003 645.129 117.209 645.06 117.346Z" fill="#2C3E50"/>
<defs>
<clipPath id="clip0_99_4770">
<rect width="80" height="100" fill="white" transform="translate(100 80)"/>
</clipPath>
</defs>
</svg>
